<mxfile host="app.diagrams.net" agent="Mozilla/5.0 (Windows NT 10.0; Win64; x64) AppleWebKit/537.36 (KHTML, like Gecko) Chrome/132.0.0.0 Safari/537.36" version="26.0.11">
  <diagram id="R2lEEEUBdFMjLlhIrx00" name="Page-1">
    <mxGraphModel dx="2665" dy="2065" grid="1" gridSize="10" guides="1" tooltips="1" connect="1" arrows="1" fold="1" page="1" pageScale="1" pageWidth="850" pageHeight="1100" math="0" shadow="0" extFonts="Permanent Marker^https://fonts.googleapis.com/css?family=Permanent+Marker">
      <root>
        <mxCell id="0" />
        <mxCell id="1" parent="0" />
        <mxCell id="ZN315WAEy5U4nkaI___c-207" value="Users" style="swimlane;childLayout=stackLayout;horizontal=1;startSize=50;horizontalStack=0;rounded=1;fontSize=14;fontStyle=0;strokeWidth=2;resizeParent=0;resizeLast=1;shadow=0;dashed=0;align=center;arcSize=4;whiteSpace=wrap;html=1;" parent="1" vertex="1">
          <mxGeometry x="-670" y="-840" width="320" height="250" as="geometry" />
        </mxCell>
        <mxCell id="ZN315WAEy5U4nkaI___c-208" value="+id: int, not null, primary key, auto_increment&lt;br&gt;+username: varchar(100), not null, unique&lt;br&gt;+password: varchar(255), not null&lt;div&gt;+name: varchar(50), null&lt;/div&gt;&lt;div&gt;+email: varchar(200), null, unique&lt;/div&gt;&lt;div&gt;+phone_number: varchar(11), unique, not null&lt;/div&gt;&lt;div&gt;+role:not null (Enum: admin, user) not null default &quot;user&quot;&lt;/div&gt;&lt;div&gt;+status: enum(&quot;active&quot;, &quot;disabled&quot;) not null default &quot;active&quot;&lt;/div&gt;&lt;div&gt;+ membership_level: enum(&quot;bronze&quot;, &quot;silver&quot;, &quot;gold&quot;), null&lt;/div&gt;&lt;div&gt;&lt;div&gt;+created_at: timestamp, default CURRENT_TIMESTAMP&lt;/div&gt;&lt;div&gt;+updated_at: timestamp, default CURRENT_TIMESTAMP&amp;nbsp;&lt;/div&gt;&lt;div&gt;&lt;span style=&quot;white-space-collapse: preserve;&quot;&gt;&#x9;&lt;/span&gt;&lt;span style=&quot;white-space-collapse: preserve;&quot;&gt;&#x9;&lt;/span&gt;on update CURRENT_TIMESTAMP&lt;/div&gt;&lt;/div&gt;&lt;div&gt;&lt;br&gt;&lt;/div&gt;" style="align=left;strokeColor=none;fillColor=none;spacingLeft=4;fontSize=12;verticalAlign=top;resizable=0;rotatable=0;part=1;html=1;" parent="ZN315WAEy5U4nkaI___c-207" vertex="1">
          <mxGeometry y="50" width="320" height="200" as="geometry" />
        </mxCell>
        <mxCell id="ZN315WAEy5U4nkaI___c-211" value="Books" style="swimlane;childLayout=stackLayout;horizontal=1;startSize=50;horizontalStack=0;rounded=1;fontSize=14;fontStyle=0;strokeWidth=2;resizeParent=0;resizeLast=1;shadow=0;dashed=0;align=center;arcSize=4;whiteSpace=wrap;html=1;" parent="1" vertex="1">
          <mxGeometry x="-320" y="-840" width="330" height="200" as="geometry" />
        </mxCell>
        <mxCell id="ZN315WAEy5U4nkaI___c-212" value="&lt;div&gt;+ id: int, not null ,primary key, auto_increment&lt;/div&gt;&lt;div&gt;+author: varchar(50), null&lt;/div&gt;&lt;div&gt;+title: varchar(200), not null&lt;/div&gt;&lt;div&gt;&lt;span style=&quot;background-color: transparent; color: light-dark(rgb(0, 0, 0), rgb(255, 255, 255));&quot;&gt;+gerne: enum(&quot;van hoc&quot;, &quot;manga&quot;, &quot;khoa hoc&quot;), null&lt;/span&gt;&lt;/div&gt;&lt;div&gt;+description: text, null&lt;/div&gt;&lt;div&gt;+cover_image: varchar(300), null&lt;/div&gt;&lt;div&gt;+created_at: timestamp, default CURRENT_TIMESTAMP&lt;/div&gt;&lt;div&gt;+updated_at: timestamp, default CURRENT_TIMESTAMP&amp;nbsp;&lt;/div&gt;&lt;div&gt;&lt;span style=&quot;white-space: pre;&quot;&gt;&#x9;&lt;/span&gt;&lt;span style=&quot;white-space: pre;&quot;&gt;&#x9;&lt;/span&gt;on update CURRENT_TIMESTAMP&lt;/div&gt;&lt;div&gt;&lt;br&gt;&lt;/div&gt;" style="align=left;strokeColor=none;fillColor=none;spacingLeft=4;fontSize=12;verticalAlign=top;resizable=0;rotatable=0;part=1;html=1;" parent="ZN315WAEy5U4nkaI___c-211" vertex="1">
          <mxGeometry y="50" width="330" height="150" as="geometry" />
        </mxCell>
        <mxCell id="ZnR8_7hwZ21bmYE7peQe-1" value="Borrowing_transactions&lt;span style=&quot;color: rgba(0, 0, 0, 0); font-family: monospace; font-size: 0px; text-align: start; text-wrap-mode: nowrap;&quot;&gt;%3CmxGraphModel%3E%3Croot%3E%3CmxCell%20id%3D%220%22%2F%3E%3CmxCell%20id%3D%221%22%20parent%3D%220%22%2F%3E%3CmxCell%20id%3D%222%22%20value%3D%22Users%22%20style%3D%22swimlane%3BchildLayout%3DstackLayout%3Bhorizontal%3D1%3BstartSize%3D50%3BhorizontalStack%3D0%3Brounded%3D1%3BfontSize%3D14%3BfontStyle%3D0%3BstrokeWidth%3D2%3BresizeParent%3D0%3BresizeLast%3D1%3Bshadow%3D0%3Bdashed%3D0%3Balign%3Dcenter%3BarcSize%3D4%3BwhiteSpace%3Dwrap%3Bhtml%3D1%3B%22%20vertex%3D%221%22%20parent%3D%221%22%3E%3CmxGeometry%20x%3D%2230%22%20y%3D%22110%22%20width%3D%22220%22%20height%3D%22190%22%20as%3D%22geometry%22%2F%3E%3C%2FmxCell%3E%3CmxCell%20id%3D%223%22%20value%3D%22%2Bid%3A%20int%2C%20not%20null%2C%20primary%20key%26lt%3Bbr%26gt%3B%2Baccount_name%3A%20string%2C%20not%20null%2C%20unique%26lt%3Bbr%26gt%3B%2Bpassword%3A%20string%2C%20not%20null%26lt%3Bdiv%26gt%3B%2Bname%3A%20string%2C%20default%3A%20unknown%26lt%3B%2Fdiv%26gt%3B%26lt%3Bdiv%26gt%3B%2Bemail%3A%20string%2C%20not%20null%26lt%3B%2Fdiv%26gt%3B%26lt%3Bdiv%26gt%3B%2Bphone_number%3A%20string%2C%20unique%26lt%3B%2Fdiv%26gt%3B%26lt%3Bdiv%26gt%3B%2Brole%3Astring%2C%20not%20null%26lt%3B%2Fdiv%26gt%3B%26lt%3Bdiv%26gt%3B%2B%20membership_level%3A%20string%26lt%3B%2Fdiv%26gt%3B%26lt%3Bdiv%26gt%3B%26lt%3Bbr%26gt%3B%26lt%3B%2Fdiv%26gt%3B%22%20style%3D%22align%3Dleft%3BstrokeColor%3Dnone%3BfillColor%3Dnone%3BspacingLeft%3D4%3BfontSize%3D12%3BverticalAlign%3Dtop%3Bresizable%3D0%3Brotatable%3D0%3Bpart%3D1%3Bhtml%3D1%3B%22%20vertex%3D%221%22%20parent%3D%222%22%3E%3CmxGeometry%20y%3D%2250%22%20width%3D%22220%22%20height%3D%22140%22%20as%3D%22geometry%22%2F%3E%3C%2FmxCell%3E%3C%2Froot%3E%3C%2FmxGraphModel%3E&lt;/span&gt;" style="swimlane;childLayout=stackLayout;horizontal=1;startSize=50;horizontalStack=0;rounded=1;fontSize=14;fontStyle=0;strokeWidth=2;resizeParent=0;resizeLast=1;shadow=0;dashed=0;align=center;arcSize=4;whiteSpace=wrap;html=1;" parent="1" vertex="1">
          <mxGeometry x="-900" y="-250" width="330" height="180" as="geometry" />
        </mxCell>
        <mxCell id="ZnR8_7hwZ21bmYE7peQe-2" value="+id: int, not null, primary key, auto_increment&lt;br&gt;+user_id: int, not null&lt;div&gt;+book_copy_id: int, not null&lt;/div&gt;&lt;div&gt;+borrowed_at: timestamp default current_timestamp&lt;br&gt;&lt;div&gt;+due_date: date, not null&lt;/div&gt;&lt;div&gt;+returned_at: timestamp, null&lt;/div&gt;&lt;div&gt;+status: enum(&quot;borrowed&quot;, &quot;returned&quot;, &quot;overdue&quot;, &quot;missing&quot;)&lt;/div&gt;&lt;div&gt;&lt;span style=&quot;white-space: pre;&quot;&gt;&#x9;&lt;/span&gt;not null&amp;nbsp;default &quot;borrowed&quot;&lt;/div&gt;&lt;div&gt;&lt;div&gt;&lt;br&gt;&lt;/div&gt;&lt;/div&gt;&lt;/div&gt;" style="align=left;strokeColor=none;fillColor=none;spacingLeft=4;fontSize=12;verticalAlign=top;resizable=0;rotatable=0;part=1;html=1;" parent="ZnR8_7hwZ21bmYE7peQe-1" vertex="1">
          <mxGeometry y="50" width="330" height="130" as="geometry" />
        </mxCell>
        <mxCell id="ZnR8_7hwZ21bmYE7peQe-3" value="Rating" style="swimlane;childLayout=stackLayout;horizontal=1;startSize=50;horizontalStack=0;rounded=1;fontSize=14;fontStyle=0;strokeWidth=2;resizeParent=0;resizeLast=1;shadow=0;dashed=0;align=center;arcSize=4;whiteSpace=wrap;html=1;" parent="1" vertex="1">
          <mxGeometry x="-210" y="320" width="360" height="190" as="geometry" />
        </mxCell>
        <mxCell id="ZnR8_7hwZ21bmYE7peQe-4" value="+id: int, not null, primary key, auto_increment&lt;br&gt;+user_id: int, foreign key, not null&lt;div&gt;+book_id: int, foreign ket, not null&lt;/div&gt;&lt;div&gt;+book_version_id: int, foreign key, null&lt;/div&gt;&lt;div&gt;+ rating: int, check: range(from 1 to 5), not null&lt;br&gt;&lt;div&gt;+comment: text null&lt;/div&gt;&lt;/div&gt;&lt;div&gt;+created_at: timestamp default current_timestamp&lt;/div&gt;&lt;div&gt;&lt;div&gt;+updated_at: timestamp, default CURRENT_TIMESTAMP&amp;nbsp;&lt;/div&gt;&lt;div&gt;&lt;span style=&quot;white-space-collapse: preserve;&quot;&gt;&#x9;&lt;/span&gt;&lt;span style=&quot;white-space-collapse: preserve;&quot;&gt;&#x9;&lt;/span&gt;on update CURRENT_TIMESTAMP&lt;/div&gt;&lt;/div&gt;" style="align=left;strokeColor=none;fillColor=none;spacingLeft=4;fontSize=12;verticalAlign=top;resizable=0;rotatable=0;part=1;html=1;" parent="ZnR8_7hwZ21bmYE7peQe-3" vertex="1">
          <mxGeometry y="50" width="360" height="140" as="geometry" />
        </mxCell>
        <mxCell id="k3v7xY2yrV74yS-AG14G-6" value="Book_Copies" style="swimlane;childLayout=stackLayout;horizontal=1;startSize=50;horizontalStack=0;rounded=1;fontSize=14;fontStyle=0;strokeWidth=2;resizeParent=0;resizeLast=1;shadow=0;dashed=0;align=center;arcSize=4;whiteSpace=wrap;html=1;" parent="1" vertex="1">
          <mxGeometry x="-322.5" y="-330" width="355" height="190" as="geometry" />
        </mxCell>
        <mxCell id="k3v7xY2yrV74yS-AG14G-7" value="&lt;div&gt;+ id: int, primary key, auto_increment&lt;/div&gt;&lt;div&gt;+book_version_id: int, not null, foreign key&lt;/div&gt;&lt;div&gt;+status: enum(&quot;available&quot;, &quot;borrowed&quot;, &quot;sold&quot;, &quot;missing&quot;),&amp;nbsp;&lt;/div&gt;&lt;div&gt;&lt;span style=&quot;white-space: pre;&quot;&gt;&#x9;&lt;/span&gt;not null, default &quot;available&quot;&lt;/div&gt;&lt;div&gt;+location: varchar(200), not null&lt;/div&gt;&lt;div&gt;&lt;div&gt;+created_at: timestamp, default CURRENT_TIMESTAMP&lt;/div&gt;&lt;div&gt;+updated_at: timestamp, default CURRENT_TIMESTAMP&amp;nbsp;&lt;/div&gt;&lt;div&gt;&lt;span style=&quot;white-space-collapse: preserve;&quot;&gt;&#x9;&lt;/span&gt;&lt;span style=&quot;white-space-collapse: preserve;&quot;&gt;&#x9;&lt;/span&gt;on update CURRENT_TIMESTAMP&lt;/div&gt;&lt;/div&gt;" style="align=left;strokeColor=none;fillColor=none;spacingLeft=4;fontSize=12;verticalAlign=top;resizable=0;rotatable=0;part=1;html=1;" parent="k3v7xY2yrV74yS-AG14G-6" vertex="1">
          <mxGeometry y="50" width="355" height="140" as="geometry" />
        </mxCell>
        <mxCell id="k3v7xY2yrV74yS-AG14G-8" value="Book_Versions" style="swimlane;childLayout=stackLayout;horizontal=1;startSize=50;horizontalStack=0;rounded=1;fontSize=14;fontStyle=0;strokeWidth=2;resizeParent=0;resizeLast=1;shadow=0;dashed=0;align=center;arcSize=4;whiteSpace=wrap;html=1;" parent="1" vertex="1">
          <mxGeometry x="-310" y="-600" width="330" height="240" as="geometry" />
        </mxCell>
        <mxCell id="k3v7xY2yrV74yS-AG14G-9" value="&lt;div&gt;+ id: int, not null ,primary key, auto_increment&lt;/div&gt;&lt;div&gt;+book_id: int, not null, foreign key&amp;nbsp;&lt;/div&gt;&lt;div&gt;+version_number: int, dedault 1&lt;/div&gt;&lt;div&gt;+quantity: int, default 0&lt;/div&gt;&lt;div&gt;+published_date: date, null&lt;/div&gt;&lt;div&gt;+file_url: varchar(300), null&lt;/div&gt;&lt;div&gt;+format: enum(&quot;physical&quot;, &quot;digital&quot;) not null&lt;/div&gt;&lt;div&gt;+price: decimal(10, 0) not null&lt;/div&gt;&lt;div&gt;&lt;div&gt;+created_at: timestamp, default CURRENT_TIMESTAMP&lt;/div&gt;&lt;div&gt;+updated_at: timestamp, default CURRENT_TIMESTAMP&amp;nbsp;&lt;/div&gt;&lt;div&gt;&lt;span style=&quot;white-space-collapse: preserve;&quot;&gt;&#x9;&lt;/span&gt;&lt;span style=&quot;white-space-collapse: preserve;&quot;&gt;&#x9;&lt;/span&gt;on update CURRENT_TIMESTAMP&lt;/div&gt;&lt;/div&gt;" style="align=left;strokeColor=none;fillColor=none;spacingLeft=4;fontSize=12;verticalAlign=top;resizable=0;rotatable=0;part=1;html=1;" parent="k3v7xY2yrV74yS-AG14G-8" vertex="1">
          <mxGeometry y="50" width="330" height="190" as="geometry" />
        </mxCell>
        <mxCell id="k3v7xY2yrV74yS-AG14G-10" value="Wishlist" style="swimlane;childLayout=stackLayout;horizontal=1;startSize=50;horizontalStack=0;rounded=1;fontSize=14;fontStyle=0;strokeWidth=2;resizeParent=0;resizeLast=1;shadow=0;dashed=0;align=center;arcSize=4;whiteSpace=wrap;html=1;" parent="1" vertex="1">
          <mxGeometry x="-280" y="140" width="320" height="155" as="geometry" />
        </mxCell>
        <mxCell id="k3v7xY2yrV74yS-AG14G-11" value="&lt;div&gt;+ id: int, primary key, auto_increment&lt;/div&gt;&lt;div&gt;+user_id: int, foreign key, not null&lt;/div&gt;&lt;div&gt;+book_id: int, foreign key,&amp;nbsp; not null&lt;/div&gt;&lt;div&gt;+book_version_id:&amp;nbsp;&lt;span style=&quot;background-color: transparent; color: light-dark(rgb(0, 0, 0), rgb(255, 255, 255));&quot;&gt;int, foreign key, null&lt;/span&gt;&lt;/div&gt;&lt;div&gt;+created_at: timestamp, default current_timestamp&lt;/div&gt;&lt;div&gt;&lt;br&gt;&lt;/div&gt;" style="align=left;strokeColor=none;fillColor=none;spacingLeft=4;fontSize=12;verticalAlign=top;resizable=0;rotatable=0;part=1;html=1;" parent="k3v7xY2yrV74yS-AG14G-10" vertex="1">
          <mxGeometry y="50" width="320" height="105" as="geometry" />
        </mxCell>
        <mxCell id="k3v7xY2yrV74yS-AG14G-13" value="Orders" style="swimlane;childLayout=stackLayout;horizontal=1;startSize=50;horizontalStack=0;rounded=1;fontSize=14;fontStyle=0;strokeWidth=2;resizeParent=0;resizeLast=1;shadow=0;dashed=0;align=center;arcSize=4;whiteSpace=wrap;html=1;" parent="1" vertex="1">
          <mxGeometry x="-820" y="20" width="370" height="180" as="geometry" />
        </mxCell>
        <mxCell id="k3v7xY2yrV74yS-AG14G-14" value="&lt;div&gt;+ id: int, not null ,primary key, auto_increment&lt;/div&gt;&lt;div&gt;+user_id: int, foreign key, not null&lt;/div&gt;&lt;div&gt;+status: enum(&quot;pending&quot;, &quot;completed&quot;, &quot;cancel&quot;), not null,&lt;/div&gt;&lt;div&gt;&lt;span style=&quot;white-space: pre;&quot;&gt;&#x9;&lt;/span&gt;default &quot;pending&quot;&lt;/div&gt;&lt;div&gt;+total_price: decimal(10, 3) not null&lt;/div&gt;&lt;div&gt;&lt;div&gt;+created_at: timestamp, default CURRENT_TIMESTAMP&lt;/div&gt;&lt;div&gt;+updated_at: timestamp, default CURRENT_TIMESTAMP&amp;nbsp;&lt;/div&gt;&lt;div&gt;&lt;span style=&quot;white-space-collapse: preserve;&quot;&gt;&#x9;&lt;/span&gt;&lt;span style=&quot;white-space-collapse: preserve;&quot;&gt;&#x9;&lt;/span&gt;on update CURRENT_TIMESTAMP&lt;/div&gt;&lt;/div&gt;" style="align=left;strokeColor=none;fillColor=none;spacingLeft=4;fontSize=12;verticalAlign=top;resizable=0;rotatable=0;part=1;html=1;" parent="k3v7xY2yrV74yS-AG14G-13" vertex="1">
          <mxGeometry y="50" width="370" height="130" as="geometry" />
        </mxCell>
        <mxCell id="k3v7xY2yrV74yS-AG14G-16" value="Order_Detail" style="swimlane;childLayout=stackLayout;horizontal=1;startSize=50;horizontalStack=0;rounded=1;fontSize=14;fontStyle=0;strokeWidth=2;resizeParent=0;resizeLast=1;shadow=0;dashed=0;align=center;arcSize=4;whiteSpace=wrap;html=1;" parent="1" vertex="1">
          <mxGeometry x="-710" y="570" width="370" height="180" as="geometry" />
        </mxCell>
        <mxCell id="k3v7xY2yrV74yS-AG14G-17" value="&lt;div&gt;&lt;div&gt;+ id: int, not null ,primary key, auto_increment&lt;/div&gt;&lt;/div&gt;&lt;div&gt;&lt;span style=&quot;background-color: transparent; color: light-dark(rgb(0, 0, 0), rgb(255, 255, 255));&quot;&gt;+order_id: int, foreign key, not null&lt;/span&gt;&lt;/div&gt;&lt;div&gt;+book_copy_id: int, foreign key, not null&lt;/div&gt;&lt;div&gt;+purchase_price: decimal(10, 0) not null&lt;/div&gt;&lt;div&gt;&lt;div&gt;+created_at: timestamp, default CURRENT_TIMESTAMP&lt;/div&gt;&lt;/div&gt;" style="align=left;strokeColor=none;fillColor=none;spacingLeft=4;fontSize=12;verticalAlign=top;resizable=0;rotatable=0;part=1;html=1;" parent="k3v7xY2yrV74yS-AG14G-16" vertex="1">
          <mxGeometry y="50" width="370" height="130" as="geometry" />
        </mxCell>
        <mxCell id="k3v7xY2yrV74yS-AG14G-18" value="Reservation" style="swimlane;childLayout=stackLayout;horizontal=1;startSize=50;horizontalStack=0;rounded=1;fontSize=14;fontStyle=0;strokeWidth=2;resizeParent=0;resizeLast=1;shadow=0;dashed=0;align=center;arcSize=4;whiteSpace=wrap;html=1;" parent="1" vertex="1">
          <mxGeometry x="-280" y="580" width="370" height="180" as="geometry" />
        </mxCell>
        <mxCell id="k3v7xY2yrV74yS-AG14G-19" value="&lt;div&gt;+ id: int, primary key, auto_increment&lt;/div&gt;&lt;div&gt;+user_id: int, foreign key, not null&lt;/div&gt;&lt;div&gt;+book_id: int not null, foreign key&lt;/div&gt;&lt;div&gt;+book_version_id: int null,&amp;nbsp;&lt;span style=&quot;background-color: transparent; color: light-dark(rgb(0, 0, 0), rgb(255, 255, 255));&quot;&gt;foreign key&lt;/span&gt;&lt;/div&gt;&lt;div&gt;+created_at: timestamp, default current_timestamp&lt;/div&gt;&lt;div&gt;+status: enum(&quot;waiting&quot;, &quot;sucessfull&quot;, &quot;cancel&quot;), default &quot;waiting&quot;&lt;/div&gt;&lt;div&gt;&lt;div&gt;+updated_at: timestamp, default CURRENT_TIMESTAMP&amp;nbsp;&lt;/div&gt;&lt;div&gt;&lt;span style=&quot;white-space-collapse: preserve;&quot;&gt;&#x9;&lt;/span&gt;&lt;span style=&quot;white-space-collapse: preserve;&quot;&gt;&#x9;&lt;/span&gt;on update CURRENT_TIMESTAMP&lt;/div&gt;&lt;/div&gt;" style="align=left;strokeColor=none;fillColor=none;spacingLeft=4;fontSize=12;verticalAlign=top;resizable=0;rotatable=0;part=1;html=1;" parent="k3v7xY2yrV74yS-AG14G-18" vertex="1">
          <mxGeometry y="50" width="370" height="130" as="geometry" />
        </mxCell>
        <mxCell id="k3v7xY2yrV74yS-AG14G-20" value="Fine" style="swimlane;childLayout=stackLayout;horizontal=1;startSize=50;horizontalStack=0;rounded=1;fontSize=14;fontStyle=0;strokeWidth=2;resizeParent=0;resizeLast=1;shadow=0;dashed=0;align=center;arcSize=4;whiteSpace=wrap;html=1;" parent="1" vertex="1">
          <mxGeometry x="-305" y="-50" width="370" height="180" as="geometry" />
        </mxCell>
        <mxCell id="k3v7xY2yrV74yS-AG14G-21" value="&lt;div&gt;+ id: int, primary key, auto_increment&lt;/div&gt;&lt;div&gt;+user_id: int, foreign key, not null&lt;/div&gt;&lt;div&gt;+borrowing_transaction_id: int, foreign ket, not null&lt;/div&gt;&lt;div&gt;+ amount: decimal(10, 3) not null&lt;/div&gt;&lt;div&gt;+status: enum(&quot;paid&quot;, &quot;unpaid&quot;), default &quot;unpaid&quot;,&lt;/div&gt;&lt;div&gt;+created_at: timestamp, default current_timestamp&lt;/div&gt;&lt;div&gt;+paid_at: timestamp, null&lt;/div&gt;" style="align=left;strokeColor=none;fillColor=none;spacingLeft=4;fontSize=12;verticalAlign=top;resizable=0;rotatable=0;part=1;html=1;" parent="k3v7xY2yrV74yS-AG14G-20" vertex="1">
          <mxGeometry y="50" width="370" height="130" as="geometry" />
        </mxCell>
      </root>
    </mxGraphModel>
  </diagram>
</mxfile>
